<svg xmlns="http://www.w3.org/2000/svg" xmlns:xlink="http://www.w3.org/1999/xlink" viewBox="0 0 430 430" width="430" height="430" preserveAspectRatio="xMidYMid meet" style="width: 100%; height: 100%; transform: translate3d(0px, 0px, 0px); content-visibility: visible;"><defs><clipPath id="__lottie_element_2284"><rect width="430" height="430" x="0" y="0"/></clipPath><clipPath id="__lottie_element_2286"><path d="M0,0 L430,0 L430,430 L0,430z"/></clipPath><clipPath id="__lottie_element_2494"><path d="M0,0 L430,0 L430,430 L0,430z"/></clipPath></defs><g clip-path="url(#__lottie_element_2284)"><g clip-path="url(#__lottie_element_2286)" transform="matrix(1,0,0,1,0,0)" opacity="1" style="display: block;"><g transform="matrix(0,-1,1,0,215,215)" opacity="1" style="display: none;"/><g transform="matrix(1,0,0,1,255.1269989013672,223)" opacity="1" style="display: none;"/><g transform="matrix(1,0,0,1,167.81256103515625,243.49264526367188)" opacity="1" style="display: none;"><g opacity="1" transform="matrix(1,0,0,1,0,0)"><path stroke-linecap="round" stroke-linejoin="round" fill-opacity="0" class="secondary" stroke="rgb(102,160,237)" stroke-opacity="1" stroke-width="18" d=" M47.776611328125,3.0793776512145996 C47.776611328125,3.0793776512145996 -55,3.0793776512145996 -55,3.0793776512145996"/></g><g opacity="1" transform="matrix(1,0,0,1,0,-40)"><path stroke-linecap="round" stroke-linejoin="round" fill-opacity="0" class="secondary" stroke="rgb(102,160,237)" stroke-opacity="1" stroke-width="18" d=" M33.329830169677734,0 C33.329830169677734,0 -55,0 -55,0"/></g><g opacity="1" transform="matrix(1,0,0,1,0,-80)"><path stroke-linecap="round" stroke-linejoin="round" fill-opacity="0" class="secondary" stroke="rgb(102,160,237)" stroke-opacity="1" stroke-width="18" d=" M18.88304901123047,-3.0793776512145996 C18.88304901123047,-3.0793776512145996 -55,-3.0793776512145996 -55,-3.0793776512145996"/></g></g><g transform="matrix(1,0,0,1,244.0542755126953,152.849609375)" opacity="1" style="display: none;"><g opacity="1" transform="matrix(1,0,0,1,0,0)"><path stroke-linecap="round" stroke-linejoin="round" fill-opacity="0" class="secondary" stroke="rgb(102,160,237)" stroke-opacity="1" stroke-width="18" d=" M-40.70209503173828,-41.71142578125 C-40.70209503173828,-41.71142578125 73.84152221679688,-41.71142578125 73.84152221679688,-41.71142578125 C74.04915618896484,-41.71142578125 74.21778869628906,-41.54279327392578 74.21778869628906,-41.33516311645508 C74.21778869628906,-41.33516311645508 74.21778869628906,52.28292465209961 74.21778869628906,52.28292465209961 C74.21778869628906,52.54149627685547 74.0078125,52.75147247314453 73.74923706054688,52.75147247314453 C73.74923706054688,52.75147247314453 -40.18532943725586,52.75147247314453 -40.18532943725586,52.75147247314453 C-40.51487731933594,52.75147247314453 -40.7822151184082,52.484134674072266 -40.7822151184082,52.15459060668945 C-40.7822151184082,52.15459060668945 -40.7822151184082,-41.63130569458008 -40.7822151184082,-41.63130569458008 C-40.7822151184082,-41.67546463012695 -40.746253967285156,-41.71142578125 -40.70209503173828,-41.71142578125z"/></g></g><g transform="matrix(0,-2.450000047683716,2.450000047683716,0,396.6605224609375,205.57400512695312)" opacity="1" style="display: none;"><g opacity="1" transform="matrix(1,0,0,1,0,0)"><path stroke-linecap="round" stroke-linejoin="round" fill-opacity="0" class="primary" stroke="rgb(18,19,49)" stroke-opacity="1" stroke-width="10.5" d=" M-6.5,-19.375 C-6.5,-19.375 -6.5,-19.375 -6.5,-19.375"/></g></g><g transform="matrix(0,-1,1,0,215,214.99899291992188)" opacity="1" style="display: none;"><g opacity="1" transform="matrix(1,0,0,1,0,0)"><path stroke-linecap="round" stroke-linejoin="round" fill-opacity="0" class="primary" stroke="rgb(18,19,49)" stroke-opacity="1" stroke-width="18" d=" M-106.74800109863281,155.78900146484375 C-106.74800109863281,155.78900146484375 93.1050033569336,155.78900146484375 93.1050033569336,155.78900146484375 C99.40399932861328,155.78900146484375 104.61799621582031,150.68499755859375 104.50900268554688,144.27699279785156 C104.50900268554688,144.27699279785156 104.50900268554688,-144.27699279785156 104.50900268554688,-144.27699279785156 C104.50900268554688,-150.5760040283203 99.40399932861328,-155.78900146484375 92.99600219726562,-155.78900146484375 C92.99600219726562,-155.78900146484375 -106.74800109863281,-155.78900146484375 -106.74800109863281,-155.78900146484375 C-113.0469970703125,-155.78900146484375 -118.26000213623047,-150.68499755859375 -118.26000213623047,-144.27699279785156 C-118.26000213623047,-144.27699279785156 -118.26000213623047,144.27699279785156 -118.26000213623047,144.27699279785156 C-118.26000213623047,150.5760040283203 -113.15599822998047,155.78900146484375 -106.74800109863281,155.78900146484375z"/></g></g><g transform="matrix(1,0,0,1,215,227.0306396484375)" opacity="1" style="display: none;"><g opacity="1" transform="matrix(1,0,0,1,0,5)"><path stroke-linecap="round" stroke-linejoin="round" fill-opacity="0" class="primary" stroke="rgb(18,19,49)" stroke-opacity="1" stroke-width="21.1144517542619" d=" M0.028999999165534973,70.17900085449219 C0.028999999165534973,70.17900085449219 -0.125,70.08499908447266 -0.125,70.08499908447266"/></g></g><g transform="matrix(1,0,0,1,215,170)" opacity="1" style="display: none;"><g opacity="1" transform="matrix(1,0,0,1,0,-10)"><path stroke-linecap="round" stroke-linejoin="round" fill-opacity="0" class="primary" stroke="rgb(18,19,49)" stroke-opacity="1" stroke-width="18" d=" M-145.82131958007812,137.0819854736328 C-145.82131958007812,137.0819854736328 145.82131958007812,137.0819854736328 145.82131958007812,137.0819854736328 C145.82131958007812,137.0819854736328 145.82131958007812,-97.36619567871094 145.82131958007812,-97.36619567871094 C145.82131958007812,-106.88321685791016 138.1068878173828,-114.59764099121094 128.58987426757812,-114.59764099121094 C128.58987426757812,-114.59764099121094 -128.77444458007812,-114.59764099121094 -128.77444458007812,-114.59764099121094 C-138.189208984375,-114.59764099121094 -145.82131958007812,-106.96553802490234 -145.82131958007812,-97.55076599121094 C-145.82131958007812,-97.55076599121094 -145.82131958007812,137.0819854736328 -145.82131958007812,137.0819854736328z"/></g><g opacity="1" transform="matrix(1,0,0,1,0,120)"><path stroke-linecap="round" stroke-linejoin="round" fill-opacity="0" class="primary" stroke="rgb(18,19,49)" stroke-opacity="1" stroke-width="18" d=" M-145.82131958007812,39.69917297363281 C-145.82131958007812,39.69917297363281 -145.82131958007812,7.081977844238281 -145.82131958007812,7.081977844238281 C-145.82131958007812,7.081977844238281 145.82131958007812,7.081977844238281 145.82131958007812,7.081977844238281 C145.82131958007812,7.081977844238281 145.82131958007812,39.69917297363281 145.82131958007812,39.69917297363281 C145.82131958007812,49.11394500732422 138.189208984375,56.74605178833008 128.77444458007812,56.74605178833008 C128.77444458007812,56.74605178833008 -128.77444458007812,56.74605178833008 -128.77444458007812,56.74605178833008 C-138.189208984375,56.74605178833008 -145.82131958007812,49.11394500732422 -145.82131958007812,39.69917297363281z"/></g></g><g transform="matrix(1,0,0,1,215,215)" opacity="1" style="display: block;"><g opacity="1" transform="matrix(1,0,0,1,0,0)"><path stroke-linecap="round" stroke-linejoin="miter" fill-opacity="0" stroke-miterlimit="4" class="primary" stroke="rgb(18,19,49)" stroke-opacity="1" stroke-width="18" d=" M-31.25,178 C-31.25,178 29.562999725341797,178 29.562999725341797,178"/></g><g opacity="1" transform="matrix(1,0,0,1,0,0)"><path stroke-linecap="round" stroke-linejoin="miter" fill-opacity="0" stroke-miterlimit="4" class="primary" stroke="rgb(18,19,49)" stroke-opacity="1" stroke-width="18" d=" M30,178 C30,178 30.125,178 30.125,178 M-31,178 C-31,178 -30.625,178 -30.625,178"/></g></g><g transform="matrix(0.7066623568534851,-0.7075509428977966,0.7075509428977966,0.7066623568534851,215,215)" opacity="1" style="display: none;"><g opacity="1" transform="matrix(1,0,0,1,0,0)"><path stroke-linecap="round" stroke-linejoin="round" fill-opacity="0" class="primary" stroke="rgb(18,19,49)" stroke-opacity="1" stroke-width="18" d=" M-31.76799964904785,-170.86000061035156 C-31.76799964904785,-170.86000061035156 28.23200035095215,-170.86000061035156 28.23200035095215,-170.86000061035156 M-24.395000457763672,142.9290008544922 C-24.395000457763672,142.9290008544922 17.14699935913086,142.7519989013672 17.14699935913086,142.7519989013672"/></g><g opacity="1" transform="matrix(1,0,0,1,0,0)"><path stroke-linecap="round" stroke-linejoin="round" fill-opacity="0" class="primary" stroke="rgb(18,19,49)" stroke-opacity="1" stroke-width="18" d=" M-98.68299865722656,-170.9459991455078 C-105.71399688720703,-170.9459991455078 -111.41400146484375,-165.24600219726562 -111.41400146484375,-158.21499633789062 C-111.41400146484375,-158.21499633789062 -111.76799774169922,159.14599609375 -111.76799774169922,159.14599609375 C-111.76799774169922,165.80999755859375 -106.36599731445312,171.21200561523438 -99.7020034790039,171.21200561523438 C-99.7020034790039,171.21200561523438 92.98500061035156,171.21200561523438 92.98500061035156,171.21200561523438 C99.4530029296875,171.21200561523438 104.6969985961914,165.96800231933594 104.6969985961914,159.5 C104.6969985961914,159.5 104.6969985961914,-159.32200622558594 104.6969985961914,-159.32200622558594 C104.6969985961914,-165.6929931640625 99.53199768066406,-170.85800170898438 93.16100311279297,-170.85800170898438 C93.16100311279297,-170.85800170898438 -98.68299865722656,-170.9459991455078 -98.68299865722656,-170.9459991455078z"/></g></g><g transform="matrix(1,0,0,1,215,215)" opacity="1" style="display: none;"><g opacity="1" transform="matrix(1,0,0,1,0,0)"><path stroke-linecap="round" stroke-linejoin="round" fill-opacity="0" class="secondary" stroke="rgb(102,160,237)" stroke-opacity="1" stroke-width="18" d=" M13.25,82 C13.25,82 -39.25,82 -39.25,82 M-15.5,42 C-15.5,42 -73.75,42 -73.75,42 M-56.25,2 C-56.25,2 -97.5,2.25 -97.5,2.25 M-31,-62 C-31,-62 64,-62 64,-62 C64,-62 64,23.25 64,23.25 C64,23.25 -31,23.25 -31,23.25 C-31,23.25 -31,-62 -31,-62z"/></g></g><g transform="matrix(1,0,0,1,215,215)" opacity="1" style="display: block;"><g opacity="1" transform="matrix(1,0,0,1,0,0)"><path stroke-linecap="round" stroke-linejoin="round" fill-opacity="0" class="primary" stroke="rgb(18,19,49)" stroke-opacity="1" stroke-width="18" d=" M-30,-151.6888885498047 C-30,-151.6888885498047 30,-151.6888885498047 30,-151.6888885498047 M-54.7580680847168,142.9629364013672 C-54.7580680847168,142.9629364013672 54.7580680847168,142.9629364013672 54.7580680847168,142.9629364013672"/></g><g opacity="1" transform="matrix(1,0,0,1,0,0)"><path stroke-linecap="round" stroke-linejoin="round" fill-opacity="0" class="primary" stroke="rgb(18,19,49)" stroke-opacity="1" stroke-width="18" d=" M-93.75310516357422,-183.40493774414062 C-104.79910278320312,-183.40493774414062 -113.75310516357422,-174.450927734375 -113.75310516357422,-163.40493774414062 C-113.75310516357422,-163.40493774414062 -113.75310516357422,159.46417236328125 -113.75310516357422,159.46417236328125 C-113.75310516357422,170.5101776123047 -104.79910278320312,179.46417236328125 -93.75310516357422,179.46417236328125 C-93.75310516357422,179.46417236328125 93.75310516357422,179.46417236328125 93.75310516357422,179.46417236328125 C104.79910278320312,179.46417236328125 113.75310516357422,170.5101776123047 113.75310516357422,159.46417236328125 C113.75310516357422,159.46417236328125 113.75310516357422,-163.40493774414062 113.75310516357422,-163.40493774414062 C113.75310516357422,-174.450927734375 104.79910278320312,-183.40493774414062 93.75310516357422,-183.40493774414062 C93.75310516357422,-183.40493774414062 -93.75310516357422,-183.40493774414062 -93.75310516357422,-183.40493774414062z"/></g></g><g transform="matrix(1,0,0,1,215,215)" opacity="1" style="display: block;"><g opacity="1" transform="matrix(1,0,0,1,0,0)"><path stroke-linecap="round" stroke-linejoin="round" fill-opacity="0" class="secondary" stroke="rgb(102,160,237)" stroke-opacity="1" stroke-width="18" d=" M63.127132415771484,92.96293640136719 C63.127132415771484,92.96293640136719 -73.4247055053711,92.96293640136719 -73.4247055053711,92.96293640136719 M60.96739196777344,52.008872985839844 C60.96739196777344,52.008872985839844 -73.7155990600586,52.008872985839844 -73.7155990600586,52.008872985839844 M59.15278625488281,12.175193786621094 C59.15278625488281,12.175193786621094 -73.48306274414062,12.175193786621094 -73.48306274414062,12.175193786621094 M-64.13578033447266,-100.37531280517578 C-64.13578033447266,-100.37531280517578 73.5419921875,-100.37531280517578 73.5419921875,-100.37531280517578 C73.5419921875,-100.37531280517578 73.5419921875,-18.920982360839844 73.5419921875,-18.920982360839844 C73.5419921875,-18.920982360839844 -64.13578033447266,-18.920982360839844 -64.13578033447266,-18.920982360839844 C-64.13578033447266,-18.920982360839844 -64.13578033447266,-100.37531280517578 -64.13578033447266,-100.37531280517578z"/></g></g></g><g clip-path="url(#__lottie_element_2494)" transform="matrix(1,0,0,1,0,0)" opacity="1" style="display: none;"><g transform="matrix(1,0,0,1,215,215)" opacity="1" style="display: none;"><g opacity="1" transform="matrix(1,0,0,1,0,0)"><path stroke-linecap="round" stroke-linejoin="round" fill-opacity="0" class="primary" stroke="rgb(18,19,49)" stroke-opacity="1" stroke-width="18" d=" M-30,-150 C-30,-150 30,-150 30,-150 M-45,150 C-45,150 45,150 45,150"/></g><g opacity="1" transform="matrix(1,0,0,1,0,0)"><path stroke-linecap="round" stroke-linejoin="round" fill-opacity="0" class="primary" stroke="rgb(18,19,49)" stroke-opacity="1" stroke-width="18" d=" M-90,-185 C-101.0459976196289,-185 -110,-176.04600524902344 -110,-165 C-110,-165 -110,165 -110,165 C-110,176.04600524902344 -101.0459976196289,185 -90,185 C-90,185 90,185 90,185 C101.0459976196289,185 110,176.04600524902344 110,165 C110,165 110,-165 110,-165 C110,-176.04600524902344 101.0459976196289,-185 90,-185 C90,-185 -90,-185 -90,-185z"/></g></g><g transform="matrix(1,0,0,1,215,215)" opacity="1" style="display: block;"><g opacity="1" transform="matrix(1,0,0,1,0,0)"><path stroke-linecap="round" stroke-linejoin="round" fill-opacity="0" class="secondary" stroke="rgb(102,160,237)" stroke-opacity="1" stroke-width="18" d=" M-526,100 C-526,100 -526,100 -526,100 M-526,60 C-526,60 -526,60 -526,60 M-526,20 C-526,20 -526,20 -526,20 M-526,-20 C-526,-20 -526,-20 -526,-20 C-526,-20 -526,-20 -526,-20 C-526,-20 -526,-20 -526,-20 C-526,-20 -526,-20 -526,-20z"/></g></g></g></g></svg>